<svg xmlns="http://www.w3.org/2000/svg" xmlns:xlink="http://www.w3.org/1999/xlink" version="1.1" x="0px" y="0px" viewBox="0 0 100 125" enable-background="new 0 0 100 100" xml:space="preserve"><path fill="#000000" d="M89.831,43.63v0.852v0.001c0,0.001,0,0.002,0,0.004v3.188c0,0,0,0,0,0.001c0,0.051-0.022,0.101-0.031,0.152  c-0.013,0.081-0.018,0.165-0.049,0.238l-0.438,1.028c-0.044,0.104-0.105,0.193-0.177,0.272c-0.005,0.006-0.006,0.013-0.011,0.018  l-0.875,0.94c-0.033,0.035-0.077,0.05-0.113,0.079c-0.04,0.033-0.067,0.075-0.113,0.102l-1.269,0.744  c-0.043,0.025-0.089,0.038-0.135,0.057c-0.016,0.006-0.026,0.02-0.043,0.025l-1.51,0.524c-0.031,0.011-0.062,0.009-0.095,0.016  c-0.023,0.006-0.042,0.022-0.067,0.026l-1.684,0.284c-0.055,0.009-0.111,0.014-0.165,0.014c-0.001,0-0.001,0-0.001,0h-1.772  c0,0,0,0-0.001,0c-0.046,0-0.094-0.003-0.141-0.01l-1.685-0.24c-0.027-0.004-0.049-0.021-0.076-0.027  c-0.037-0.008-0.074-0.006-0.111-0.019l-1.509-0.525c-0.019-0.007-0.031-0.021-0.049-0.029c-0.051-0.021-0.102-0.036-0.149-0.065  l-1.269-0.787c-0.041-0.025-0.065-0.064-0.101-0.095c-0.033-0.027-0.074-0.041-0.104-0.073l-0.875-0.94  c-0.005-0.005-0.006-0.012-0.011-0.018c-0.071-0.079-0.133-0.169-0.177-0.272l-0.426-1.001c0-0.001-0.001-0.002-0.001-0.002  l-0.011-0.025c-0.02-0.047-0.018-0.096-0.029-0.143c-0.019-0.069-0.047-0.134-0.05-0.208l-0.044-1.072  c0-0.011,0.005-0.02,0.005-0.03s-0.006-0.021-0.006-0.031l0.044-2.096l-0.043-1.036c0-0.01,0.005-0.019,0.005-0.028  c-0.001-0.067,0.019-0.133,0.031-0.2c0.013-0.064,0.019-0.131,0.043-0.191c0.004-0.009,0.003-0.019,0.007-0.028l0.459-1.028  c0.023-0.053,0.065-0.089,0.097-0.136c0.032-0.049,0.051-0.104,0.093-0.147l0.897-0.94c0.028-0.03,0.066-0.043,0.098-0.068  s0.051-0.06,0.085-0.082l1.225-0.787c0.034-0.021,0.073-0.025,0.108-0.043c0.037-0.018,0.064-0.047,0.104-0.061l1.51-0.525  c0.027-0.01,0.056-0.004,0.083-0.012c0.028-0.007,0.051-0.025,0.08-0.03l1.466-0.247l-7.344-3.875v0.843v0.02  c0,0.001,0,0.002,0,0.003v3.171c0,0.003-0.002,0.006-0.002,0.009c0,0.068-0.025,0.134-0.04,0.202  c-0.015,0.062-0.018,0.13-0.043,0.188c-0.001,0.003-0.001,0.007-0.002,0.01l-0.46,1.028c-0.043,0.097-0.101,0.183-0.168,0.257  c-0.002,0.002-0.002,0.005-0.004,0.007l-0.853,0.94c-0.031,0.035-0.074,0.05-0.109,0.079c-0.04,0.033-0.067,0.076-0.113,0.104  l-1.226,0.744c-0.039,0.023-0.082,0.035-0.122,0.053c-0.019,0.008-0.03,0.023-0.049,0.03l-1.531,0.568  c-0.039,0.015-0.08,0.012-0.119,0.021c-0.031,0.008-0.057,0.026-0.089,0.031l-1.706,0.241c-0.034,0.005-0.068,0.006-0.103,0.007  c-0.005,0.001-0.008,0.003-0.012,0.003l-1.728,0.044c-0.009,0-0.018,0-0.025,0c0,0,0,0-0.001,0c-0.053,0-0.107-0.004-0.162-0.014  l-1.729-0.285c-0.024-0.004-0.043-0.02-0.066-0.025c-0.033-0.008-0.066-0.005-0.099-0.017l-1.51-0.524  c-0.019-0.007-0.031-0.021-0.049-0.029c-0.053-0.021-0.107-0.038-0.157-0.07l-1.246-0.788c-0.032-0.021-0.05-0.052-0.079-0.075  s-0.066-0.034-0.094-0.062l-0.897-0.896c-0.008-0.008-0.01-0.019-0.018-0.026c-0.078-0.083-0.147-0.177-0.194-0.287l-0.006-0.015  c-0.001-0.001-0.002-0.003-0.002-0.005l-0.451-1.053c0,0,0,0,0-0.001c-0.031-0.072-0.036-0.155-0.05-0.235  c-0.008-0.053-0.03-0.104-0.031-0.155c0-0.001,0-0.001,0-0.002v-1.071v-2.058c0,0,0-0.001,0-0.002v-0.019V34.79  c0-0.003,0.002-0.006,0.002-0.009c0-0.067,0.025-0.134,0.04-0.201c0.015-0.063,0.018-0.131,0.043-0.188  c0.001-0.003,0.001-0.007,0.002-0.01l0.459-1.027c0.022-0.05,0.062-0.084,0.092-0.129c0.028-0.044,0.043-0.095,0.08-0.135  l0.854-0.941c0.035-0.039,0.083-0.059,0.122-0.091c0.038-0.03,0.064-0.071,0.107-0.097l1.247-0.743  c0.026-0.016,0.057-0.017,0.084-0.029c0.026-0.014,0.046-0.036,0.074-0.047l1.509-0.569c0.037-0.014,0.074-0.009,0.112-0.019  c0.036-0.009,0.065-0.031,0.104-0.036l1.491-0.207l-7.354-3.881v0.812v0.004c0,0.001,0,0.001,0,0.001v3.211  c0,0.005-0.003,0.009-0.003,0.014c0,0.065-0.025,0.13-0.039,0.196c-0.015,0.064-0.019,0.133-0.045,0.191  c-0.002,0.005-0.001,0.01-0.003,0.014l-0.459,1.007c-0.045,0.098-0.104,0.183-0.173,0.258c-0.002,0.003-0.003,0.007-0.006,0.01  l-0.897,0.962c-0.031,0.033-0.073,0.047-0.107,0.075c-0.036,0.029-0.06,0.068-0.101,0.094l-1.246,0.766  c-0.042,0.025-0.087,0.038-0.131,0.058c-0.02,0.008-0.032,0.024-0.052,0.031l-1.51,0.547c-0.033,0.012-0.067,0.01-0.102,0.018  c-0.025,0.007-0.046,0.023-0.073,0.028l-1.685,0.284c-0.055,0.009-0.111,0.014-0.165,0.014c-0.001,0-0.001,0-0.001,0h-1.771h-0.001  c-0.055,0-0.111-0.005-0.167-0.015l-1.663-0.284c-0.025-0.004-0.045-0.021-0.069-0.026c-0.033-0.009-0.066-0.006-0.099-0.018  l-1.531-0.547c-0.016-0.006-0.025-0.018-0.04-0.023c-0.043-0.019-0.088-0.03-0.13-0.055L43.7,33.313  c-0.053-0.031-0.087-0.079-0.132-0.117c-0.032-0.028-0.073-0.042-0.104-0.075l-0.846-0.934c-0.001-0.001-0.002-0.002-0.003-0.004  l-0.004-0.004c-0.003-0.004-0.004-0.008-0.007-0.012c-0.058-0.064-0.109-0.137-0.149-0.219l-0.504-1.027  c-0.004-0.008-0.003-0.017-0.007-0.025c-0.028-0.062-0.037-0.131-0.052-0.199c-0.015-0.063-0.037-0.125-0.038-0.188  c-0.001-0.01-0.006-0.018-0.006-0.027v-1.094v-2.101v-1.071c0-0.002,0.001-0.004,0.001-0.006c0.001-0.066,0.026-0.132,0.04-0.198  c0.014-0.064,0.017-0.133,0.042-0.191c0.001-0.002,0-0.004,0.001-0.006l0.46-1.051c0.024-0.057,0.069-0.097,0.103-0.146  c0.029-0.044,0.045-0.094,0.082-0.134l0.896-0.962c0.034-0.036,0.079-0.053,0.116-0.083c0.038-0.031,0.064-0.071,0.107-0.097  l1.226-0.722c0.029-0.018,0.062-0.018,0.092-0.032c0.028-0.013,0.05-0.037,0.08-0.048l1.531-0.547  c0.028-0.01,0.057-0.005,0.084-0.013c0.03-0.008,0.054-0.027,0.085-0.032l1.474-0.25l-7.373-3.891v0.833c0,0.001,0,0.002,0,0.003  v0.003v3.188c0,0.002,0,0.003,0,0.004v0.003c0,0.084-0.028,0.159-0.048,0.237c-0.012,0.049-0.009,0.1-0.029,0.147l-0.001,0.002  c-0.001,0.002-0.001,0.003-0.002,0.005l-0.421,1.011c-0.001,0.001-0.001,0.001-0.001,0.002l-0.013,0.03  c-0.045,0.108-0.11,0.2-0.185,0.282c-0.006,0.007-0.008,0.016-0.014,0.022l-0.875,0.919c-0.029,0.03-0.068,0.043-0.101,0.069  c-0.033,0.027-0.056,0.065-0.094,0.089l-1.225,0.766c-0.044,0.027-0.092,0.041-0.138,0.062c-0.019,0.008-0.032,0.024-0.052,0.031  l-1.51,0.547c-0.035,0.013-0.071,0.01-0.106,0.019c-0.025,0.007-0.046,0.023-0.072,0.027l-1.728,0.284  c-0.054,0.01-0.108,0.014-0.161,0.014c-0.001,0-0.001,0-0.001,0H32.35c0,0,0,0-0.001,0c-0.054,0-0.11-0.005-0.165-0.014L30.5,26.108  c-0.027-0.005-0.048-0.021-0.073-0.028c-0.034-0.008-0.068-0.006-0.102-0.018l-1.51-0.547c-0.018-0.007-0.029-0.021-0.047-0.028  c-0.04-0.018-0.081-0.028-0.12-0.051l-1.225-0.723c-0.043-0.025-0.069-0.066-0.107-0.097c-0.035-0.028-0.076-0.041-0.107-0.074  l-0.919-0.962c-0.005-0.005-0.006-0.011-0.01-0.016c-0.074-0.081-0.139-0.171-0.185-0.276l-0.438-1.007c0-0.001,0-0.002-0.001-0.004  c-0.026-0.062-0.029-0.133-0.043-0.2c-0.013-0.064-0.038-0.127-0.038-0.19c0-0.001-0.001-0.003-0.001-0.004v-1.071v-2.139  c0-0.002,0-0.003,0-0.004v-0.001v-0.755l-7.161,5.092h1.643c0.029,0,0.055,0.015,0.084,0.017c0.027,0.002,0.054-0.008,0.082-0.003  l1.684,0.284c0.031,0.005,0.055,0.024,0.084,0.032c0.03,0.008,0.061,0.003,0.091,0.014l1.51,0.547  c0.032,0.012,0.053,0.036,0.083,0.051s0.063,0.016,0.093,0.033l1.269,0.766c0.04,0.024,0.063,0.062,0.099,0.091  s0.077,0.043,0.109,0.076l0.875,0.919c0.048,0.05,0.07,0.111,0.105,0.167c0.029,0.048,0.07,0.085,0.093,0.138l0.013,0.03  c0,0.001,0,0.001,0.001,0.002l0.421,1.011c0.001,0.002,0.001,0.003,0.002,0.005l0.001,0.002c0.02,0.048,0.017,0.097,0.029,0.146  c0.02,0.078,0.048,0.154,0.048,0.239v0.003c0,0.001,0,0.002,0,0.004v1.065v0.001c0,0.001,0,0.002,0,0.003v3.189c0,0,0,0,0,0.001  c0,0.051-0.022,0.101-0.031,0.152c-0.013,0.081-0.018,0.165-0.049,0.238l-0.438,1.028c-0.044,0.104-0.105,0.193-0.177,0.272  c-0.005,0.006-0.006,0.013-0.011,0.018l-0.875,0.94c-0.031,0.033-0.072,0.047-0.106,0.075c-0.038,0.031-0.063,0.071-0.106,0.098  l-1.225,0.744c-0.047,0.028-0.098,0.044-0.147,0.063c-0.018,0.008-0.029,0.022-0.048,0.028l-1.531,0.525  c-0.032,0.011-0.064,0.009-0.097,0.016c-0.021,0.006-0.037,0.02-0.06,0.023l-1.663,0.284c-0.056,0.01-0.112,0.015-0.167,0.015  c-0.001,0-0.001,0-0.001,0h-1.771c-0.046,0-0.092-0.003-0.139-0.01l-1.729-0.241c-0.027-0.004-0.049-0.021-0.076-0.026  c-0.038-0.009-0.076-0.006-0.113-0.02l-1.509-0.524c-0.019-0.006-0.03-0.021-0.048-0.028c-0.056-0.022-0.112-0.041-0.165-0.075  l-1.226-0.788c-0.029-0.019-0.045-0.048-0.071-0.068c-0.027-0.022-0.061-0.031-0.086-0.057l-0.918-0.896  c-0.01-0.01-0.014-0.023-0.022-0.034c-0.075-0.078-0.14-0.168-0.187-0.272c-0.004-0.01-0.012-0.017-0.016-0.026  c-0.001-0.002-0.002-0.003-0.003-0.005l-0.433-1.06c0-0.001-0.001-0.002-0.001-0.003l-0.004-0.01  c-0.024-0.06-0.022-0.121-0.035-0.183c-0.013-0.065-0.039-0.126-0.039-0.195v-0.012v-0.001v-1.059v-2.122v-0.012v-0.001v-0.716  l-5.583,3.97l63.003,33.14c0.147-0.002,0.287,0.026,0.421,0.086l26.064-18.534L89.831,43.63z M43.15,36.146v1.116v0.001  c0,0.001,0,0.002,0,0.004v3.132V40.4v0.012c0,0.07-0.026,0.132-0.04,0.198c-0.012,0.06-0.01,0.121-0.034,0.18l-0.004,0.01  c0,0.001-0.001,0.002-0.001,0.003l-0.427,1.045c0,0.001-0.001,0.002-0.001,0.004l-0.005,0.011c-0.046,0.113-0.114,0.208-0.192,0.293  c-0.008,0.009-0.01,0.02-0.018,0.027l-0.875,0.896c-0.027,0.028-0.063,0.038-0.093,0.062s-0.049,0.059-0.082,0.08l-1.226,0.788  c-0.052,0.033-0.108,0.052-0.164,0.074c-0.018,0.008-0.03,0.022-0.049,0.029l-1.509,0.524c-0.033,0.012-0.066,0.009-0.1,0.017  c-0.023,0.006-0.042,0.021-0.066,0.025l-1.729,0.284c-0.054,0.01-0.108,0.014-0.161,0.014c-0.001,0-0.001,0-0.001,0h-1.771  c0,0,0,0-0.001,0c-0.054,0-0.11-0.005-0.165-0.014l-1.685-0.284c-0.024-0.004-0.044-0.021-0.067-0.026  c-0.032-0.007-0.063-0.005-0.095-0.016l-1.51-0.524c-0.017-0.006-0.028-0.02-0.045-0.026c-0.049-0.021-0.1-0.035-0.146-0.063  l-1.225-0.744c-0.04-0.024-0.064-0.063-0.1-0.092c-0.033-0.027-0.074-0.04-0.104-0.072l-0.897-0.94  c-0.005-0.005-0.006-0.012-0.011-0.017c-0.071-0.077-0.134-0.165-0.179-0.267l-0.459-1.028c-0.001-0.003-0.001-0.006-0.002-0.008  c-0.026-0.062-0.03-0.132-0.044-0.198c-0.014-0.064-0.039-0.128-0.039-0.192c0-0.003-0.002-0.006-0.002-0.009v-1.072v-2.1  c0-0.001,0-0.002,0-0.003v-0.019V36.19c0-0.003,0.002-0.006,0.002-0.009c0-0.064,0.025-0.128,0.039-0.192  c0.014-0.067,0.018-0.137,0.044-0.198c0.001-0.002,0.001-0.005,0.002-0.008l0.459-1.028c0.022-0.051,0.063-0.085,0.093-0.13  c0.028-0.045,0.043-0.095,0.08-0.135l0.854-0.94c0.03-0.033,0.07-0.048,0.104-0.076c0.034-0.029,0.057-0.067,0.096-0.093  l1.225-0.787c0.035-0.022,0.074-0.025,0.11-0.043c0.038-0.019,0.065-0.049,0.106-0.062l1.531-0.525  c0.027-0.009,0.054-0.004,0.081-0.011s0.049-0.024,0.077-0.029l1.685-0.284c0.028-0.005,0.055,0.005,0.083,0.003  s0.054-0.017,0.083-0.017h1.75c0.028,0,0.052,0.014,0.079,0.016c0.028,0.003,0.055-0.007,0.083-0.002l1.729,0.284  c0.029,0.005,0.052,0.022,0.079,0.03c0.029,0.007,0.059,0.002,0.088,0.012l1.509,0.525c0.034,0.012,0.058,0.038,0.09,0.054  c0.032,0.015,0.068,0.017,0.1,0.035l1.226,0.743c0.038,0.023,0.061,0.06,0.095,0.087c0.032,0.026,0.071,0.039,0.102,0.069  l0.919,0.94c0.046,0.047,0.067,0.105,0.103,0.157c0.033,0.051,0.078,0.092,0.103,0.15l0.011,0.025v0.001l0.427,1.001  c0.031,0.074,0.036,0.158,0.05,0.24C43.128,36.045,43.15,36.096,43.15,36.146C43.15,36.146,43.15,36.146,43.15,36.146z   M59.49,45.849L59.49,45.849v3.183c0,0.003-0.002,0.006-0.002,0.009c0,0.064-0.025,0.128-0.039,0.192  c-0.014,0.066-0.018,0.137-0.044,0.198c-0.001,0.003-0.001,0.005-0.002,0.008l-0.459,1.028c-0.046,0.102-0.107,0.189-0.18,0.267  c-0.004,0.005-0.005,0.012-0.01,0.017l-0.896,0.94c-0.029,0.031-0.068,0.043-0.101,0.069c-0.035,0.029-0.06,0.068-0.1,0.093  l-1.247,0.766c-0.043,0.026-0.089,0.039-0.134,0.059c-0.019,0.008-0.03,0.022-0.049,0.029l-1.51,0.547  c-0.033,0.012-0.067,0.01-0.102,0.018c-0.025,0.007-0.046,0.023-0.073,0.028l-1.685,0.284c-0.055,0.009-0.111,0.014-0.165,0.014  c-0.001,0-0.001,0-0.001,0h-1.75c0,0,0,0-0.001,0c-0.054,0-0.11-0.005-0.165-0.014l-1.684-0.284  c-0.025-0.004-0.044-0.021-0.068-0.026c-0.033-0.008-0.065-0.006-0.098-0.017l-1.554-0.547c-0.017-0.006-0.028-0.02-0.044-0.026  c-0.042-0.018-0.085-0.028-0.125-0.052l-1.247-0.722c-0.053-0.03-0.086-0.077-0.131-0.115c-0.035-0.029-0.078-0.044-0.109-0.079  l-0.846-0.934c-0.001-0.002-0.003-0.003-0.004-0.005l-0.003-0.003c-0.002-0.002-0.003-0.006-0.005-0.008  c-0.059-0.066-0.111-0.141-0.152-0.224l-0.503-1.027c-0.004-0.009-0.003-0.018-0.007-0.026c-0.027-0.06-0.035-0.127-0.05-0.192  c-0.016-0.065-0.038-0.129-0.039-0.194c-0.001-0.009-0.006-0.017-0.006-0.026v-1.072v-2.144v-1.05c0-0.001,0-0.001,0-0.002  c0.001-0.052,0.023-0.104,0.031-0.155c0.014-0.08,0.019-0.163,0.05-0.235c0-0.001,0-0.001,0-0.001l0.459-1.072  c0.022-0.053,0.063-0.089,0.094-0.136c0.034-0.054,0.056-0.112,0.101-0.16l0.854-0.896c0.031-0.032,0.071-0.046,0.105-0.073  c0.035-0.028,0.059-0.066,0.098-0.091l1.29-0.788c0.032-0.02,0.069-0.021,0.103-0.037s0.057-0.042,0.091-0.054l1.51-0.524  c0.027-0.01,0.055-0.004,0.082-0.012c0.027-0.007,0.05-0.025,0.079-0.03l1.685-0.285c0.029-0.005,0.056,0.005,0.084,0.003  c0.029-0.002,0.054-0.017,0.083-0.017h1.75c0.029,0,0.055,0.015,0.083,0.017s0.056-0.008,0.084-0.003l1.684,0.285  c0.028,0.005,0.05,0.022,0.077,0.03c0.027,0.006,0.054,0.001,0.08,0.01l1.531,0.524c0.033,0.012,0.057,0.037,0.088,0.052  c0.031,0.014,0.064,0.015,0.094,0.032l1.27,0.744c0.044,0.025,0.07,0.066,0.108,0.097c0.042,0.033,0.09,0.053,0.127,0.094  l0.853,0.94c0.036,0.04,0.051,0.09,0.08,0.134c0.029,0.045,0.069,0.079,0.092,0.13l0.447,1c0.002,0.004,0.003,0.008,0.005,0.012  l0.008,0.017c0.028,0.062,0.029,0.129,0.044,0.193c0.013,0.059,0.039,0.113,0.042,0.175l0.001,0.017c0,0.002,0,0.003,0,0.005  l0.042,1.05c0,0.007-0.003,0.013-0.003,0.02s0.004,0.014,0.004,0.021V45.849z M75.766,54.435v0.019c0,0.001,0,0.002,0,0.003v3.193  c0,0.003-0.002,0.006-0.002,0.009c0,0.064-0.025,0.128-0.039,0.192c-0.014,0.067-0.018,0.137-0.044,0.198  c-0.001,0.002-0.001,0.005-0.002,0.008l-0.459,1.028c-0.043,0.098-0.102,0.183-0.169,0.258c-0.002,0.002-0.002,0.005-0.004,0.007  l-0.854,0.94c-0.029,0.032-0.068,0.045-0.101,0.072c-0.038,0.033-0.065,0.076-0.109,0.104l-1.225,0.766  c-0.047,0.029-0.098,0.045-0.147,0.065c-0.018,0.008-0.029,0.021-0.047,0.028l-1.531,0.547c-0.032,0.012-0.065,0.009-0.098,0.017  c-0.026,0.007-0.047,0.023-0.073,0.028l-1.707,0.285c-0.055,0.01-0.11,0.014-0.164,0.014c-0.001,0-0.001,0-0.001,0h-1.728  c0,0,0,0-0.001,0c-0.053,0-0.107-0.004-0.162-0.014l-1.729-0.285c-0.026-0.005-0.047-0.021-0.072-0.027  c-0.035-0.009-0.07-0.006-0.105-0.019l-1.509-0.547c-0.02-0.007-0.033-0.023-0.052-0.031c-0.047-0.021-0.094-0.034-0.138-0.062  l-1.226-0.766c-0.033-0.021-0.053-0.054-0.082-0.078c-0.03-0.023-0.066-0.034-0.095-0.062l-0.919-0.918  c-0.008-0.008-0.01-0.019-0.018-0.026c-0.079-0.084-0.148-0.178-0.195-0.289l-0.006-0.013c0-0.002-0.001-0.003-0.001-0.004  l-0.431-1.012c-0.03-0.071-0.035-0.154-0.048-0.233c-0.009-0.053-0.032-0.104-0.032-0.157c0-0.001,0-0.001,0-0.001v-1.094v-2.097  c0-0.001,0-0.002,0-0.003v-0.001v-1.094c0-0.061,0.025-0.121,0.037-0.182c0.013-0.071,0.016-0.146,0.043-0.21l0.438-1.027  c0.023-0.055,0.065-0.093,0.097-0.141c0.031-0.049,0.05-0.104,0.091-0.148l0.875-0.941c0.031-0.034,0.074-0.05,0.108-0.078  c0.037-0.03,0.063-0.071,0.105-0.097l1.226-0.743c0.031-0.019,0.066-0.021,0.099-0.035c0.032-0.016,0.057-0.042,0.091-0.054  l1.509-0.525c0.027-0.01,0.055-0.004,0.082-0.011c0.026-0.007,0.046-0.024,0.073-0.029l1.729-0.306  c0.03-0.006,0.058,0.005,0.088,0.002c0.029-0.003,0.056-0.018,0.086-0.018h1.729c0.026,0,0.049,0.013,0.075,0.015  c0.025,0.002,0.049-0.007,0.074-0.003l1.728,0.262c0.031,0.005,0.056,0.023,0.086,0.031c0.031,0.008,0.062,0.002,0.094,0.013  l1.51,0.525c0.039,0.014,0.066,0.043,0.103,0.061s0.075,0.021,0.109,0.043l1.225,0.787c0.034,0.021,0.053,0.056,0.083,0.081  c0.032,0.026,0.07,0.039,0.1,0.069l0.897,0.941c0.039,0.042,0.057,0.094,0.088,0.14c0.033,0.049,0.077,0.087,0.102,0.143  l0.459,1.027c0.001,0.003,0.001,0.006,0.002,0.01c0.025,0.059,0.029,0.126,0.043,0.189c0.015,0.067,0.04,0.133,0.04,0.2  c0,0.003,0.002,0.006,0.002,0.009V54.435z"/><polygon fill="#000000" points="70.231,83.645 96.318,65.075 96.318,48.389 70.231,66.938 "/><path fill="#000000" d="M28.558,23.061l1.024,0.605l1.34,0.485l1.513,0.255h1.608l1.549-0.255l1.329-0.481l1.024-0.641l0.662-0.695  l0.289-0.692v-0.043l-1.007,0.63c-0.044,0.027-0.092,0.041-0.138,0.062c-0.019,0.008-0.032,0.024-0.052,0.031l-1.51,0.547  c-0.035,0.013-0.071,0.01-0.106,0.019c-0.025,0.006-0.046,0.023-0.072,0.027l-1.728,0.284c-0.054,0.01-0.108,0.014-0.161,0.014  c-0.001,0-0.001,0-0.001,0H32.35c0,0,0,0-0.001,0c-0.054,0-0.11-0.005-0.165-0.014L30.5,22.914  c-0.027-0.005-0.048-0.021-0.073-0.028c-0.034-0.008-0.068-0.005-0.102-0.018l-1.51-0.547c-0.02-0.007-0.032-0.022-0.051-0.031  c-0.042-0.018-0.086-0.03-0.127-0.055l-1.062-0.645v0.086l0.284,0.653L28.558,23.061z"/><path fill="#000000" d="M14.492,33.02l1.04,0.669l1.302,0.453l1.562,0.218h1.621l1.492-0.255l1.358-0.466l1.011-0.614l0.664-0.714  l0.288-0.677v-0.041l-1.018,0.618c-0.04,0.024-0.083,0.036-0.125,0.055c-0.018,0.007-0.029,0.021-0.047,0.028l-1.531,0.568  c-0.034,0.013-0.069,0.01-0.104,0.019c-0.026,0.007-0.048,0.024-0.075,0.029l-1.663,0.284c-0.056,0.01-0.112,0.015-0.167,0.015  c-0.001,0-0.001,0-0.001,0h-1.771c0,0,0,0-0.001,0c-0.053,0-0.107-0.004-0.161-0.014l-1.729-0.284  c-0.024-0.004-0.042-0.02-0.065-0.024c-0.034-0.009-0.068-0.006-0.102-0.018l-1.509-0.525c-0.019-0.007-0.031-0.021-0.049-0.029  c-0.055-0.022-0.11-0.04-0.162-0.073l-1.041-0.669v0.068l0.285,0.698L14.492,33.02z"/><polygon fill="#000000" points="14.49,29.825 15.532,30.494 16.85,30.953 18.407,31.209 20.018,31.209 21.501,30.955 22.855,30.452   23.879,29.831 24.543,29.117 24.831,28.44 24.831,27.771 24.542,27.078 23.887,26.39 22.817,25.744 21.484,25.261 19.972,25.006   18.369,25.006 16.861,25.26 15.525,25.764 14.453,26.393 13.799,27.097 13.51,27.774 13.51,28.447 13.795,29.146 "/><path fill="#000000" d="M86.654,48.078c-0.015,0.006-0.024,0.02-0.04,0.025l-1.51,0.591c-0.04,0.016-0.081,0.013-0.122,0.022  c-0.035,0.01-0.063,0.031-0.101,0.036l-1.684,0.24c-0.048,0.007-0.095,0.01-0.142,0.01h-1.772c0,0,0,0-0.001,0  c-0.046,0-0.094-0.003-0.141-0.01l-1.685-0.24c-0.03-0.004-0.054-0.022-0.083-0.029c-0.039-0.009-0.078-0.007-0.116-0.021  l-1.509-0.547c-0.018-0.007-0.029-0.021-0.047-0.028c-0.043-0.019-0.088-0.03-0.129-0.056L76.5,47.424l0.001,0.027l0.297,0.697  l0.667,0.717l1.059,0.657l1.312,0.457l1.521,0.217h1.614l1.522-0.257l1.335-0.464l1.055-0.619l0.659-0.708l0.288-0.677v-0.049  l-1.087,0.618C86.715,48.058,86.684,48.064,86.654,48.078z"/><polygon fill="#000000" points="28.56,19.85 29.587,20.473 30.922,20.957 32.435,21.212 34.043,21.212 35.592,20.957 36.921,20.476   37.945,19.835 38.607,19.14 38.896,18.447 38.896,17.778 38.612,17.111 37.912,16.395 36.889,15.772 35.557,15.309 33.999,15.053   32.432,15.053 30.893,15.31 29.55,15.77 28.524,16.429 27.864,17.105 27.575,17.814 27.575,18.466 27.859,19.132 "/><polygon fill="#000000" points="62.165,32.982 61.123,33.604 60.476,34.317 60.169,35.004 60.169,35.693 60.465,36.357   61.152,37.044 62.21,37.712 63.531,38.172 65.089,38.428 66.655,38.428 68.195,38.171 69.536,37.711 70.547,37.062 71.205,36.336   71.513,35.648 71.513,35 71.21,34.308 70.524,33.605 69.492,32.96 68.162,32.485 66.623,32.269 65.033,32.269 63.487,32.483 "/><path fill="#000000" d="M70.348,39.535c-0.018,0.008-0.03,0.022-0.049,0.029l-1.531,0.525c-0.032,0.011-0.064,0.009-0.098,0.016  c-0.022,0.006-0.039,0.021-0.062,0.024l-1.706,0.284c-0.055,0.01-0.109,0.014-0.163,0.014c-0.001,0-0.001,0-0.001,0H65.01  c0,0,0,0-0.001,0c-0.053,0-0.107-0.004-0.161-0.014l-1.729-0.284c-0.024-0.004-0.042-0.02-0.065-0.024  c-0.034-0.009-0.068-0.006-0.102-0.018l-1.51-0.525c-0.019-0.007-0.03-0.021-0.048-0.028c-0.053-0.022-0.107-0.039-0.157-0.07  l-1.068-0.675v0.062l0.302,0.705l0.685,0.684l1.052,0.665l1.321,0.459l1.548,0.256l1.581-0.041l1.54-0.218l1.342-0.498l1.016-0.616  l0.65-0.718l0.308-0.688v-0.022l-0.998,0.641C70.462,39.494,70.404,39.513,70.348,39.535z"/><path fill="#000000" d="M54.012,30.915c-0.018,0.008-0.03,0.022-0.049,0.029l-1.51,0.524c-0.03,0.011-0.062,0.008-0.093,0.016  c-0.024,0.006-0.043,0.022-0.068,0.026l-1.685,0.285c-0.056,0.009-0.111,0.014-0.166,0.014c-0.001,0-0.001,0-0.001,0h-1.771h-0.001  c-0.055,0-0.111-0.005-0.168-0.015l-1.663-0.285c-0.022-0.004-0.039-0.019-0.061-0.023c-0.031-0.008-0.063-0.005-0.095-0.016  l-1.531-0.524c-0.018-0.006-0.029-0.021-0.047-0.027c-0.045-0.019-0.092-0.031-0.135-0.057l-1.119-0.656v0.044l0.34,0.692  l0.652,0.721l1.062,0.622l1.355,0.484l1.491,0.255h1.604l1.514-0.255l1.332-0.483l1.038-0.638l0.696-0.746l0.302-0.661v-0.072  l-1.068,0.676C54.119,30.877,54.064,30.894,54.012,30.915z"/><polygon fill="#000000" points="45.858,24.391 44.838,24.991 44.158,25.722 43.85,26.426 43.85,27.054 44.19,27.749 44.846,28.472   45.892,29.085 47.258,29.553 48.752,29.81 50.354,29.81 51.88,29.552 53.199,29.093 54.251,28.428 54.936,27.744 55.237,27.039   55.237,26.408 54.898,25.73 54.241,24.989 53.183,24.388 51.829,23.865 50.323,23.649 48.732,23.649 47.212,23.907 "/><polygon fill="#000000" points="47.101,47.046 48.133,47.661 49.51,48.146 51.029,48.403 52.607,48.403 54.122,48.146 55.45,47.666   56.507,47.017 57.188,46.319 57.482,45.647 57.456,44.999 57.14,44.292 56.495,43.581 55.449,42.968 54.087,42.501 52.564,42.243   50.986,42.243 49.461,42.501 48.138,42.961 47.05,43.626 46.41,44.298 46.104,45.014 46.104,45.628 46.442,46.32 "/><path fill="#000000" d="M56.277,49.482c-0.019,0.008-0.03,0.022-0.049,0.029l-1.51,0.547c-0.033,0.012-0.066,0.009-0.1,0.018  c-0.026,0.007-0.047,0.023-0.074,0.028L52.86,50.39c-0.056,0.009-0.111,0.014-0.166,0.014c-0.001,0-0.001,0-0.001,0h-1.75  c0,0,0,0-0.001,0c-0.055,0-0.11-0.005-0.166-0.014l-1.684-0.285c-0.025-0.004-0.045-0.021-0.069-0.026  c-0.032-0.008-0.064-0.006-0.096-0.017l-1.554-0.547c-0.017-0.006-0.028-0.02-0.045-0.026c-0.045-0.019-0.092-0.032-0.135-0.058  l-1.091-0.65v0.062l0.34,0.694l0.651,0.72l1.03,0.596l1.385,0.488l1.519,0.256h1.58l1.514-0.255l1.328-0.481l1.051-0.646  l0.688-0.722l0.301-0.675v-0.057l-1.079,0.662C56.368,49.45,56.322,49.463,56.277,49.482z"/><path fill="#000000" d="M72.604,58.107c-0.019,0.008-0.031,0.022-0.051,0.029l-1.531,0.525c-0.029,0.01-0.06,0.008-0.09,0.015  c-0.021,0.005-0.037,0.02-0.059,0.023l-1.707,0.306c-0.059,0.011-0.117,0.016-0.175,0.016c-0.001,0-0.001,0-0.001,0h-1.728h-0.001  c-0.057,0-0.115-0.005-0.173-0.016L65.36,58.7c-0.022-0.004-0.04-0.019-0.062-0.024c-0.031-0.008-0.062-0.005-0.094-0.016  l-1.509-0.525c-0.019-0.007-0.031-0.021-0.049-0.029c-0.047-0.02-0.096-0.033-0.141-0.061l-1.063-0.646v0.069l0.281,0.661l0.701,0.7  l1.038,0.648l1.327,0.481l1.552,0.256h1.564l1.54-0.257l1.342-0.479l1.018-0.636l0.652-0.719l0.307-0.688v-0.046l-0.996,0.641  C72.717,58.065,72.659,58.084,72.604,58.107z"/><polygon fill="#000000" points="72.767,52.19 71.744,51.533 70.431,51.076 68.875,50.841 67.305,50.841 65.746,51.116   64.411,51.581 63.393,52.199 62.732,52.909 62.443,53.587 62.443,54.274 62.728,54.941 63.428,55.658 64.452,56.28 65.79,56.746   67.348,57.021 68.901,57.021 70.443,56.745 71.791,56.283 72.8,55.635 73.459,54.907 73.766,54.221 73.766,53.598 73.464,52.922 "/><polygon fill="#000000" points="78.487,41.559 77.465,42.216 76.767,42.947 76.475,43.603 76.502,44.266 76.799,44.994   77.448,45.66 78.523,46.309 79.843,46.787 81.357,47.003 82.983,47.003 84.483,46.789 85.821,46.266 86.891,45.657 87.542,44.956   87.831,44.278 87.831,43.587 87.517,42.915 86.838,42.22 85.813,41.562 84.454,41.102 82.928,40.844 81.325,40.844 79.805,41.101   "/><path fill="#000000" d="M40,40.865c-0.018,0.007-0.029,0.021-0.047,0.028l-1.509,0.547c-0.035,0.013-0.071,0.01-0.106,0.019  c-0.025,0.006-0.046,0.023-0.072,0.027l-1.729,0.284c-0.054,0.01-0.108,0.014-0.161,0.014c-0.001,0-0.001,0-0.001,0h-1.771  c-0.047,0-0.094-0.003-0.142-0.01l-1.685-0.24c-0.03-0.004-0.054-0.022-0.083-0.029c-0.039-0.009-0.078-0.007-0.116-0.021  l-1.51-0.547c-0.02-0.007-0.033-0.023-0.052-0.031c-0.046-0.021-0.094-0.034-0.138-0.062l-1.051-0.657v0.056l0.301,0.675  l0.688,0.721l1.021,0.621l1.326,0.461l1.523,0.257h1.607l1.56-0.257l1.315-0.457l1.03-0.662l0.66-0.676l0.289-0.71v-0.008  l-1.03,0.606C40.082,40.837,40.04,40.848,40,40.865z"/><polygon fill="#000000" points="5.021,50.507 68.231,83.924 68.231,66.916 5.021,33.668 "/><polygon fill="#000000" points="40.168,34.969 39.139,34.344 37.81,33.881 36.252,33.625 34.666,33.625 33.145,33.882   31.803,34.342 30.792,34.992 30.135,35.715 29.828,36.403 29.828,37.049 30.13,37.725 30.822,38.451 31.848,39.092 33.162,39.568   34.677,39.784 36.296,39.784 37.846,39.529 39.187,39.043 40.205,38.443 40.861,37.737 41.15,37.06 41.15,36.35 40.866,35.683 "/><text x="0" y="115" fill="#000000" font-size="5px" font-weight="bold" font-family="'Helvetica Neue', Helvetica, Arial-Unicode, Arial, Sans-serif">Created by Lluisa Iborra</text><text x="0" y="120" fill="#000000" font-size="5px" font-weight="bold" font-family="'Helvetica Neue', Helvetica, Arial-Unicode, Arial, Sans-serif">from the Noun Project</text></svg>